<?xml version="1.0" standalone="no"?>
<svg xmlns="http://www.w3.org/2000/svg" viewBox="0 0 147.12 29" width="147.12" height="29"><g fill="#B97375" color="#B97375" transform="translate(0, 0) scale(0.29)"><svg width="100.0" height="100.0" x="0.0" y="0.0" viewBox="0 0 100 100"><g><polygon points="4.635,41.6 1.515,72.756 0.334,76.951 3.023,47.644  "></polygon><polygon points="95.364,41.6 98.485,72.756 99.666,76.951 96.978,47.644  "></polygon><g><path d="M5.771,39.521l0.013-0.123C5.783,39.398,5.692,39.45,5.771,39.521z"></path><path d="M97.504,73.729c0,0,0.002,0.803-8.865,0.803c-10.384,0-13.146-5.213-26.337-5.213c-7.62,0-10.962,6.502-12.302,10.539    c-1.34-4.037-4.681-10.539-12.302-10.539c-13.19,0-15.954,5.213-26.336,5.213c-8.869,0-8.867-0.803-8.867-0.803L0,83h49.198h1.604    H100L97.504,73.729z"></path></g><path d="M94.217,39.398c0,0-0.494,0.137-1.615,0.28l0.714,14.399c0,0-8.124,6.782-28.73,10.482C51,67,50,76.57,50,76.57   c0.735-1.639,4.011-9.393,12.302-9.393c12.832,0,16.241,5.215,26.337,5.215c7.618,0,8.865-0.838,8.865-0.838L94.217,39.398z"></path><path d="M89.523,16.379c0,0-3.16,8.02-25.62,15.372c-6.56,2.147-9.938,5.35-11.681,8.027c-1.077,1.472-1.677,3.008-1.769,4.266   c-0.024,0.136-0.041,0.249-0.052,0.341H50.38L50,63.703l-0.38-19.318h-0.04c0-3.363-4.199-9.604-11.882-9.604   c-13.19,0-13.815,5.214-24.197,5.214c-6.297,0-7.537-0.3-7.73-0.474L2.496,71.555c0,0,1.247,0.838,8.867,0.838   c10.094,0,13.504-5.215,26.336-5.215c8.291,0,11.633,7.754,12.302,9.393c0,0,1.106-9.736,14.585-13.078   c20.32-5.041,26.592-11.554,26.592-11.554L89.523,16.379z"></path></g></svg></g><line x1="41" y1="1" x2="41" y2="28" stroke="#2d2d34" stroke-linecap="round"></line><path fill="#2d2d34" fill-rule="nonzero" d="M5.52 18.67Q2.47 18.67 1.24 16.04Q0 13.42 0 9.24L0 9.24Q0 4.80 1.32 2.40Q2.64 0 5.57 0L5.57 0Q11.16 0 11.16 9.14L11.16 9.14Q11.16 13.25 9.90 15.96Q8.64 18.67 5.52 18.67L5.52 18.67ZM5.57 15.84Q6.84 15.84 7.25 14.17Q7.66 12.50 7.66 9.12L7.66 9.12Q7.66 6.41 7.26 4.62Q6.86 2.83 5.57 2.83L5.57 2.83Q4.27 2.83 3.89 4.61Q3.50 6.38 3.50 9.10L3.50 9.10Q3.50 12.50 3.90 14.17Q4.30 15.84 5.57 15.84L5.57 15.84ZM13.63 22.54L13.63 5.11L16.99 4.82L16.99 6.14Q17.78 5.35 18.47 5.00Q19.15 4.66 20.06 4.66L20.06 4.66Q21.31 4.66 22.04 5.35Q22.78 6.05 23.10 7.52Q23.42 9.00 23.42 11.47L23.42 11.47Q23.42 14.86 22.64 16.75Q21.86 18.65 19.66 18.65L19.66 18.65Q18.65 18.65 18.05 18.26Q17.45 17.88 16.99 17.18L16.99 17.18L16.99 21.86L13.63 22.54ZM18.46 16.08Q19.25 16.08 19.64 15.14Q20.04 14.21 20.04 11.62L20.04 11.62Q20.04 9.14 19.64 8.11Q19.25 7.08 18.43 7.08L18.43 7.08Q17.59 7.08 16.99 8.02L16.99 8.02L16.99 15.00Q17.47 16.08 18.46 16.08L18.46 16.08ZM30.05 18.65Q27.65 18.65 26.38 16.74Q25.10 14.83 25.10 11.66L25.10 11.66Q25.10 8.45 26.40 6.55Q27.70 4.66 30.17 4.66L30.17 4.66Q32.52 4.66 33.77 6.55Q35.02 8.45 35.02 11.66L35.02 11.66Q35.02 11.86 34.94 11.94Q34.87 12.02 34.87 12.05L34.87 12.05L28.46 12.05Q28.46 13.61 28.87 14.89Q29.28 16.18 30.12 16.18L30.12 16.18Q31.06 16.18 31.51 15.10Q31.97 14.02 31.99 13.97L31.99 13.97L34.54 14.93Q34.03 16.66 32.93 17.65Q31.82 18.65 30.05 18.65L30.05 18.65ZM28.46 10.10L31.70 10.10Q31.70 8.66 31.32 7.82Q30.94 6.98 30.12 6.98L30.12 6.98Q29.71 6.98 29.33 7.39Q28.94 7.80 28.70 8.52Q28.46 9.24 28.46 10.10L28.46 10.10ZM37.06 18.48L37.06 5.11L40.42 4.82L40.42 6.55Q41.45 5.64 42.44 5.15Q43.44 4.66 44.28 4.66L44.28 4.66Q45.55 4.66 46.36 5.58Q47.16 6.50 47.16 8.06L47.16 8.06L47.16 18.19L43.80 18.48L43.80 9.34Q43.80 7.54 42.58 7.54L42.58 7.54Q42.17 7.54 41.68 7.78Q41.18 8.02 40.42 8.47L40.42 8.47L40.42 18.19L37.06 18.48ZM50.21 18.48L50.21 0.34L52.46 0.34Q55.18 0.34 56.78 0.56Q58.39 0.79 59.63 1.97Q60.86 3.14 60.86 5.74L60.86 5.74Q60.86 8.09 59.82 9.30Q58.78 10.51 57.25 10.88Q55.73 11.26 53.74 11.26L53.74 11.26L53.74 18.19L50.21 18.48ZM53.76 8.40L54.36 8.40Q55.75 8.40 56.56 7.82Q57.36 7.25 57.36 5.71L57.36 5.71Q57.36 4.20 56.62 3.67Q55.87 3.14 54.26 3.14L54.26 3.14L53.76 3.14L53.76 8.40ZM64.99 18.65Q64.13 18.65 63.43 18.11Q62.74 17.57 62.35 16.64Q61.97 15.72 61.97 14.57L61.97 14.57Q61.97 11.95 63.76 10.88Q65.54 9.82 67.92 9.67L67.92 9.67Q67.92 8.38 67.75 7.75Q67.58 7.13 66.94 7.13L66.94 7.13Q66.38 7.13 66.10 7.56Q65.81 7.99 65.74 8.66L65.74 8.66L62.45 8.09Q62.69 6.24 63.96 5.45Q65.23 4.66 66.94 4.66L66.94 4.66Q69.12 4.66 70.21 5.81Q71.30 6.96 71.30 8.81L71.30 8.81L71.30 15.79Q71.30 16.92 71.66 18.19L71.66 18.19L68.38 18.48L67.99 16.82Q67.56 17.59 66.72 18.12Q65.88 18.65 64.99 18.65L64.99 18.65ZM66.55 16.25Q66.96 16.25 67.24 16.06Q67.51 15.86 67.92 15.43L67.92 15.43L67.92 11.69Q66.72 11.69 66 12.34Q65.28 12.98 65.28 14.35L65.28 14.35Q65.28 15.26 65.60 15.76Q65.93 16.25 66.55 16.25L66.55 16.25ZM78.67 22.54Q75.98 22.54 74.50 21.78Q73.01 21.02 73.01 19.70L73.01 19.70Q73.01 18.79 73.68 18.16Q74.35 17.52 75.38 17.14L75.38 17.14Q74.47 16.87 74.02 16.46Q73.56 16.06 73.56 15.29L73.56 15.29Q73.56 14.35 74.21 13.60Q74.86 12.84 75.91 12.34L75.91 12.34Q73.75 11.09 73.75 8.86L73.75 8.86Q73.75 7.51 74.48 6.56Q75.22 5.62 76.38 5.14Q77.54 4.66 78.82 4.66L78.82 4.66Q80.71 4.66 82.18 5.66L82.18 5.66Q82.90 5.02 83.63 4.58Q84.36 4.15 85.46 4.15L85.46 4.15L85.46 6.38Q84.07 6.38 83.33 6.72L83.33 6.72Q83.62 7.46 83.72 7.90Q83.83 8.33 83.83 8.83L83.83 8.83Q83.83 10.46 82.73 11.68Q81.62 12.89 79.13 12.89L79.13 12.89L78.24 12.86Q78.02 12.84 77.71 12.84L77.71 12.84Q77.40 12.94 77.11 13.26Q76.82 13.58 76.82 13.94L76.82 13.94Q76.82 14.28 77.06 14.52Q77.30 14.76 77.66 14.81L77.66 14.81L81.50 15.24Q84.84 15.62 84.84 18.48L84.84 18.48Q84.84 20.71 83.12 21.62Q81.41 22.54 78.67 22.54L78.67 22.54ZM78.77 10.97Q79.51 10.97 79.92 10.40Q80.33 9.84 80.33 8.81L80.33 8.81Q80.33 7.75 79.90 7.22Q79.46 6.70 78.79 6.70L78.79 6.70Q78.05 6.70 77.62 7.30Q77.18 7.90 77.18 8.78L77.18 8.78Q77.18 9.60 77.54 10.28Q77.90 10.97 78.77 10.97L78.77 10.97ZM78.82 20.09Q81.55 20.09 81.55 18.60L81.55 18.60Q81.55 18.19 81.34 18.00Q81.12 17.81 80.65 17.72Q80.18 17.64 79.13 17.57L79.13 17.57L77.14 17.40Q76.70 17.54 76.39 17.92Q76.08 18.29 76.08 18.74L76.08 18.74Q76.08 19.39 76.76 19.74Q77.45 20.09 78.82 20.09L78.82 20.09ZM91.15 18.65Q88.75 18.65 87.48 16.74Q86.21 14.83 86.21 11.66L86.21 11.66Q86.21 8.45 87.50 6.55Q88.80 4.66 91.27 4.66L91.27 4.66Q93.62 4.66 94.87 6.55Q96.12 8.45 96.12 11.66L96.12 11.66Q96.12 11.86 96.05 11.94Q95.98 12.02 95.98 12.05L95.98 12.05L89.57 12.05Q89.57 13.61 89.98 14.89Q90.38 16.18 91.22 16.18L91.22 16.18Q92.16 16.18 92.62 15.10Q93.07 14.02 93.10 13.97L93.10 13.97L95.64 14.93Q95.14 16.66 94.03 17.65Q92.93 18.65 91.15 18.65L91.15 18.65ZM89.57 10.10L92.81 10.10Q92.81 8.66 92.42 7.82Q92.04 6.98 91.22 6.98L91.22 6.98Q90.82 6.98 90.43 7.39Q90.05 7.80 89.81 8.52Q89.57 9.24 89.57 10.10L89.57 10.10Z" transform="translate(51, 5.332)"></path></svg>